<svg height="480pt" viewBox="0 0 480 480" width="480pt" xmlns="http://www.w3.org/2000/svg"><path d="m200 336-54.390625 12.550781c-29.042969 6.707031-49.609375 32.5625-49.609375 62.359375v69.089844h384v-69.089844c0-29.796875-20.566406-55.652344-49.609375-62.359375l-54.390625-12.550781" fill="#b8cbd9"/><path d="m406.390625 348.550781-54.390625-12.550781h-152l-54.390625 12.550781c-29.042969 6.707031-49.609375 32.5625-49.609375 62.359375v69.089844h360v-69.089844c0-29.796875-20.566406-55.652344-49.609375-62.359375zm0 0" fill="#e8eff4"/><path d="m328 296 8 40-48 48-48-48 8-40" fill="#efbe9a"/><path d="m312 392-24 32-24-32 16-16h16zm0 0" fill="#66acd7"/><path d="m304 480-8-64h-16l-8 64" fill="#b8cbd9"/><path d="m352 320-56 56 32 32 48-72zm0 0" fill="#4472b2"/><path d="m224 320 56 56-32 32-48-72zm0 0" fill="#4472b2"/><path d="m424 192v-104c0-30.929688-25.070312-56-56-56h-.449219c-17.574219-19.640625-43.117187-32-71.550781-32h-48c-53.015625 0-96 42.984375-96 96v96" fill="#976947"/><path d="m368 72c0-17.945312-4.296875-35.03125-11.902344-50.710938-16.464844-13.257812-37.3125-21.289062-60.097656-21.289062h-48c-53.015625 0-96 42.984375-96 96v96h129.136719c51.671875-22.886719 86.863281-68.023438 86.863281-120zm0 0" fill="#c18e59"/><path d="m376 224h16c17.671875 0 32-14.328125 32-32s-14.328125-32-32-32h-16" fill="#efbe9a"/><path d="m200 224h-16c-17.671875 0-32-14.328125-32-32s14.328125-32 32-32h16" fill="#db9b7c"/><path d="m392 184v-104l-26.542969 9.953125c-24.769531 9.285156-51.007812 14.046875-77.457031 14.046875s-52.6875-4.761719-77.457031-14.046875l-26.542969-9.953125v104" fill="#db9b7c"/><path d="m368 89-2.542969.953125c-24.769531 9.285156-51.007812 14.046875-77.457031 14.046875s-52.6875-4.761719-77.457031-14.046875l-26.542969-9.953125v104h184zm0 0" fill="#efbe9a"/><path d="m184 184v16c0 57.441406 46.558594 104 104 104s104-46.558594 104-104v-16" fill="#add9e9"/><path d="m144 352c0-26.511719-17.910156-48-40-48-13.105469 0-24.703125 7.601562-32 19.289062-7.296875-11.6875-18.894531-19.289062-32-19.289062-22.089844 0-40 21.488281-40 48 0 19.734375 9.9375 36.671875 24.121094 44.046875.304687 19.65625 3.09375 39.199219 8.496094 58.121094l5.488281 19.222656c1.125 3.914063 4.703125 6.609375 8.773437 6.609375 5.042969 0 9.121094-4.078125 9.121094-9.121094v-38.878906c0-8.839844 7.160156-16 16-16s16 7.160156 16 16v38.878906c0 5.042969 4.078125 9.121094 9.121094 9.121094 4.070312 0 7.648437-2.695312 8.765625-6.617188l5.488281-19.222656c5.402344-18.914062 8.199219-38.457031 8.496094-58.121094 14.191406-7.367187 24.128906-24.304687 24.128906-44.039062zm0 0" fill="#b8cbd9"/><path d="m98.574219 304.480469c-10.847657 1.777343-20.300781 8.765625-26.574219 18.808593-7.296875-11.6875-18.894531-19.289062-32-19.289062-22.089844 0-40 21.488281-40 48 0 19.734375 9.9375 36.671875 24.121094 44.046875.246094 16.488281 2.367187 32.875 6.199218 48.898437 9.144532-2.457031 17.757813-6.351562 25.679688-11.511718v-1.433594c0-8.839844 7.160156-16 16-16 1.304688 0 2.550781.199219 3.761719.488281 17.4375-19.550781 28.238281-46.601562 28.238281-76.488281 0-12.464844-1.96875-24.382812-5.425781-35.519531zm0 0" fill="#e8eff4"/><g fill="#db9b7c"><path d="m240 160c-8.824219 0-16-7.175781-16-16s7.175781-16 16-16 16 7.175781 16 16-7.175781 16-16 16zm0-16.015625v.015625zm0 0"/><path d="m336 160c-8.824219 0-16-7.175781-16-16s7.175781-16 16-16 16 7.175781 16 16-7.175781 16-16 16zm0-16.015625v.015625zm0 0"/></g></svg>