<svg id="Capa_1" enable-background="new 0 0 512.004 512.004" height="512" viewBox="0 0 512.004 512.004" width="512" xmlns="http://www.w3.org/2000/svg"><g><path d="m350.888 380.547c15.951 0 17.459 90.634 65.042 90.634 21.58 0 44.691-23.248 44.691-79.718 0-71.812 43.882-73.528 43.882-145.488 0-43.801-39.395-79.309-87.992-79.309-21.192 0-40.632 6.755-55.82 18.004-5.801 4.297-13.808 4.297-19.609 0-15.188-11.249-34.627-18.004-55.82-18.004-48.596 0-87.992 35.508-87.992 79.309 0 71.96 43.882 73.676 43.882 145.488 0 56.47 23.111 79.718 44.691 79.718 47.586 0 49.094-90.634 65.045-90.634z" fill="#fbf1cf"/><path d="m274.563 167.251c-43.549 4.759-77.291 38.188-77.291 78.724 0 71.96 43.882 73.676 43.882 145.488 0 56.47 23.111 79.718 44.691 79.718 35.483 0 45.344-50.391 54.679-76.024-62.728-23.974-134.821-161.41-65.961-227.906z" fill="#f9dfbc"/><g><path d="m145.733 216.872-124.243 75.146c-16.098 9.737-18.798 31.991-5.495 45.295l10.558 10.557c9.943 9.943 25.588 11.315 37.11 3.254l124.524-87.124c14.434-10.099 27.957-21.441 40.413-33.898l80.395-80.395-44.085-44.085-82.537 82.537c-11.011 11.012-23.314 20.653-36.64 28.713z" fill="#81dcd9"/><path d="m208.744 248.256c-14.699-7.829-33.099-25.461-46.028-42.958-5.451 4.147-11.111 8.023-16.983 11.574l-46.236 27.965c9.537 17.317 27.76 37.776 44.343 50.191l44.347-31.028c7.079-4.953 13.935-10.209 20.557-15.744z" fill="#6dc8dd"/><path d="m292.999 182.055 24.906-24.906 31.354 31.354c5.282 5.282 5.282 13.845 0 19.127l-5.779 5.779c-5.282 5.282-13.845 5.282-19.127 0z" fill="#b9e6ff"/><path d="m292.916 167.5h35.223v14.352h-35.223z" fill="#8bd5fd" transform="matrix(-.707 .707 -.707 -.707 653.618 78.616)"/><path d="m215.936 44.428-35.657 35.657c-4.801 4.801-4.801 12.586 0 17.387l13.657 13.657 53.044-53.044-13.657-13.657c-4.801-4.801-12.585-4.801-17.387 0z" fill="#b9e6ff"/><path d="m272.93 53.049c15.752 17.412 36.68 43.191 51.069 62.941 8.511 11.681 7.254 27.811-2.965 38.031l-31.163 31.163c-10.22 10.219-26.35 11.476-38.031 2.965-19.75-14.389-45.529-35.317-62.941-51.069-5.978-5.408-6.19-14.725-.489-20.425l64.095-64.095c5.701-5.701 15.017-5.489 20.425.489z" fill="#8daee1"/><path d="m251.841 188.149c9.873 7.193 22.924 7.408 32.898 1.132-35.206-26.287-42.761-83.51-34.777-134.178l-61.552 61.552c-5.701 5.7-5.489 15.017.489 20.425 17.413 15.752 43.192 36.679 62.942 51.069z" fill="#6a95d6"/><path d="m252.505 52.56-64.095 64.095c-5.701 5.701-5.489 15.017.489 20.425 4.762 4.308 10.152 9.004 15.871 13.846l82.006-82.006c-4.842-5.719-9.538-11.109-13.846-15.871-5.408-5.978-14.724-6.19-20.425-.489z" fill="#b9e6ff"/><path d="m204.77 150.926 42.949-42.949c-1.399-17.39-.492-35.516 2.243-52.875l-61.552 61.552c-5.701 5.7-5.489 15.017.489 20.425 4.762 4.309 10.153 9.005 15.871 13.847z" fill="#8bd5fd"/></g><g><g><ellipse cx="267.041" cy="294.579" fill="#eda1ab" rx="30.938" ry="24.637"/><ellipse cx="434.735" cy="294.579" fill="#eda1ab" rx="30.938" ry="24.637"/><ellipse cx="350.888" cy="275.649" fill="#4e5660" rx="16.423" ry="18.377"/></g></g><path d="m358.782 125.766c4.143 0 7.5-3.358 7.5-7.5v-21.836c0-4.142-3.357-7.5-7.5-7.5s-7.5 3.358-7.5 7.5v21.835c0 4.143 3.358 7.501 7.5 7.501zm41.393 15.251 20.088-20.089c2.929-2.929 2.929-7.678-.001-10.606-2.928-2.93-7.677-2.929-10.606 0l-20.088 20.089c-2.929 2.929-2.929 7.678.001 10.606 2.927 2.929 7.676 2.929 10.606 0zm-135.462 111.832v12c0 4.142 3.357 7.5 7.5 7.5s7.5-3.358 7.5-7.5v-12c0-4.142-3.357-7.5-7.5-7.5s-7.5 3.358-7.5 7.5zm225.707-61.861c-2.773-3.078-7.517-3.323-10.592-.55-3.077 2.772-3.324 7.515-.551 10.592 11.597 12.869 17.727 28.411 17.727 44.945 0 68.879-43.882 71.369-43.882 145.488 0 49.888-18.68 72.218-37.191 72.218-24.664 0-34.94-32.05-43.196-57.802-6.111-19.06-10.526-32.832-21.847-32.832s-15.735 13.772-21.847 32.832c-8.256 25.753-18.531 57.802-43.195 57.802-7.097 0-13.901-3.296-19.679-9.53-2.814-3.039-7.561-3.22-10.599-.403-3.038 2.815-3.219 7.561-.403 10.599 8.566 9.244 19.462 14.335 30.681 14.335 46.415 0 54.708-69.658 65.042-88.814 10.333 19.154 18.628 88.814 65.043 88.814 14.301 0 27.336-7.834 36.702-22.058 10.133-15.389 15.489-37.921 15.489-65.16 0-68.692 43.882-71.262 43.882-145.488 0-20.015-7.665-39.543-21.584-54.988zm-163.454 84.661c0 14.269 10.732 25.877 23.922 25.877 13.191 0 23.923-11.608 23.923-25.877 0-14.268-10.731-25.877-23.923-25.877-13.191 0-23.922 11.608-23.922 25.877zm32.845 0c0 5.998-4.003 10.877-8.923 10.877s-8.922-4.879-8.922-10.877c0-5.997 4.002-10.877 8.922-10.877s8.923 4.879 8.923 10.877zm62.252-22.8v12c0 4.142 3.357 7.5 7.5 7.5s7.5-3.358 7.5-7.5v-12c0-4.142-3.357-7.5-7.5-7.5s-7.5 3.358-7.5 7.5zm-173.409 138.614c0-68.98-37.688-75.824-43.18-130.944 21.744-16.977 30.122-27.215 62.524-59.207 9.142.288 17.953-2.842 24.905-8.745l26.148 26.147c8.197 8.196 21.535 8.197 29.734-.001l5.779-5.779c5.259-5.259 7.125-12.631 5.636-19.407 1.74-.734 3.403-1.679 4.956-2.829 24.241-17.954 58.68-21.874 87.55-8.874 3.772 1.7 8.217.019 9.918-3.76 1.7-3.777.018-8.217-3.76-9.918-33.982-15.302-74.187-10.574-102.635 10.498-1.312.971-2.892 1.547-4.527 1.695l-23.282-23.282c10.96-12.908 11.783-31.563 1.64-45.483-15.109-20.739-36.562-46.97-51.568-63.556-8.487-9.382-22.776-9.273-31.291-.761l-.222.222-8.354-8.353c-7.736-7.736-20.258-7.736-27.993 0l-35.658 35.658c-7.717 7.718-7.717 20.275.001 27.993l8.353 8.353-.223.223c-8.523 8.524-8.611 22.812.762 31.29 4.251 3.846 10.93 9.694 17.876 15.54-19.478 18.418-31.74 35.246-59.893 52.273l-124.241 75.144c-20.252 12.247-23.68 40.253-6.918 57.015l10.559 10.558c12.582 12.582 32.234 14.226 46.713 4.096l123.726-86.566c8.627 52.238 41.965 59.956 41.965 120.76 0 14.09 1.402 26.902 4.168 38.081.998 4.034 5.075 6.472 9.081 5.479 4.021-.995 6.475-5.061 5.48-9.082-2.474-10.001-3.729-21.601-3.729-34.478zm95.303-197.656c2.35 2.349 2.35 6.171 0 8.521l-5.778 5.779c-2.349 2.348-6.173 2.351-8.521.001l-26.051-26.051 14.3-14.3zm-57.667-113.794c11.212 13.498 22.74 28.168 31.647 40.394 6.375 8.75 5.447 20.657-2.207 28.311-2.379 2.379-32.093 32.092-31.163 31.163-7.67 7.671-19.639 8.524-28.311 2.206-12.226-8.908-26.896-20.435-40.393-31.647zm-100.708 5.376 35.658-35.658c1.873-1.874 4.906-1.874 6.779 0l8.353 8.354-42.438 42.438-8.353-8.353c-1.868-1.87-1.868-4.912.001-6.781zm8.349 46.129c-2.794-2.527-2.894-6.883-.217-9.56 6.631-6.631 52.837-52.838 64.094-64.095 2.678-2.677 7.031-2.577 9.562.218 2.912 3.219 6.005 6.73 9.201 10.438l-72.201 72.201c-3.708-3.197-7.22-6.29-10.439-9.202zm19.42 36.271c5.762 4.694 31.465 25.309 38.02 28.936-25.076 24.83-30.479 31.127-43.434 42.354-10.966-6.982-23.969-19.147-34.745-32.501 12.231-10.053 17.084-16.025 40.159-38.789zm-153.987 177.189c-8.56 5.986-20.126 4.97-27.508-2.412l-10.558-10.558c-9.855-9.855-7.872-26.349 4.073-33.574l71.554-43.279c8.723 13.658 21.445 28.192 34.458 39.432zm84.742-59.29c-12.721-10.42-25.778-24.994-34.342-38.296 37.691-22.963 41.498-24.696 51.489-31.728 10.608 13.218 23.112 25.247 34.585 33.351-10.283 7.999-13.715 9.937-51.732 36.673z"/></g></svg>