<svg enable-background="new 0 0 140 140" height="512" viewBox="0 0 140 140" width="512" xmlns="http://www.w3.org/2000/svg"><circle cx="70" cy="70" fill="#344d5b" r="64"/><path d="m130.5271301 90.7915344-1.8391113-1.8383789c-.0700073-.0698242-.1300049-.1499023-.210022-.2099609l-50.5599899-50.5600548c-.5299683-.6098633-1.25-1.0297852-2.1099854-1.1298828-.0100098 0-.0100098 0-.0200195 0l-4.75-4.7600098-.0099487.0100098c-.5100098-.7199726-1.3099976-1.2299824-2.2600098-1.3400898-.4100342-.0500488-.8099976-.0100098-1.1799927.0900879l-3.9100342-3.8999023c-.5199585-.5900879-1.2399902-1.0102539-2.0800171-1.1000977-1.7799683-.2099609-3.3999634 1.0800781-3.5999756 2.8598633l-.5999756 5.2802753-1.8900146-1.9001465c-.5200195-.6699238-1.2999878-1.1501484-2.210022-1.2500019-1.789978-.2099609-3.3999634 1.08008-3.5999756 2.8601093l-2.7399901 23.9799805-.9500122 8.3698692-5.7299805-8.7399864c-1.0800171-1.6398926-3.2800293-2.0898438-4.9200439-1.0100098-1.6399536 1.0900879-2.0999756 3.2900391-1.0100098 4.9299316l10.4000244 15.8701135-.9400024 8.2299805-2.5 3.9399414c-.2999878.4799805-.2299805 1.0500488.0800171 1.4301758l.0100098.0097656c.0100098.0200195.0299683.0302734.0499878.0500488l41.6827393 41.6828613c22.1901244-4.6276855 40.1476439-20.75 47.3963545-41.8544922z" opacity=".1"/><path d="m74.6257782 93.2953644-1.4579315-4.4088135 3.1547928-27.6511002 2.3483047-20.5824928c.2036133-1.7846069-1.0780869-3.3963585-2.8627014-3.599968-1.7846069-.2036133-3.396347 1.0780182-3.5999603 2.8626289l-2.3483124 20.5824928-1.1707535-.1335754 2.9434967-25.7991714c.2036133-1.7846107-1.0780716-3.3965073-2.8626099-3.6001091-1.7846832-.2036209-3.3965149 1.0781479-3.6001282 2.8627586l-2.9434929 25.7991714-1.1706047-.1335602 3.4048538-29.8428745c.2035904-1.784462-1.0780945-3.3963604-2.8627777-3.5999794-1.7845383-.2036018-3.3963699 1.078167-3.5999641 2.8626289l-3.4048538 29.8428745-1.1707497-.1335754 2.7360687-23.9811211c.2036095-1.7846107-1.0780029-3.3964996-2.8626099-3.600111-1.7846107-.2036095-3.3964424 1.0781574-3.6000557 2.8627682l-2.7360687 23.9811249-.9541626 8.3630447-5.7226524-8.7321396c-1.0825729-1.6401405-3.2896004-2.0921822-4.929657-1.0096779-1.6401291 1.0825005-2.0921822 3.2896004-1.0096855 4.9297333l10.400406 15.8696558-.9390373 8.230484-2.4981575 3.9361649c-.4873314.7678375-.0031052 1.7809601.900444 1.8840485l31.1093559 3.5493469c.893486.1019439 1.591507-.7568131 1.3092041-1.6106568z" fill="#dbd8dd"/><path d="m76.8691711 112.8640823-.4778976-4.6189575-14.2146263-23.9265671-10.5808602-17.8100814c-.9174156-1.5442276-.4092293-3.5397835 1.1349983-4.4571991s3.5397453-.4092941 4.4571609 1.1349335l10.5808601 17.8100815 1.0130539-.6018524-13.2625998-22.3240815c-.9174156-1.5442276-.4093056-3.5399132 1.1348572-4.4572906 1.5442924-.9174538 3.5399513-.4092445 4.4573669 1.1349831l13.2625999 22.3240852 1.0129242-.6017761-15.3413467-25.8231126c-.9173431-1.5440979-.4092331-3.5397835 1.1350594-4.4572372 1.5441628-.9173775 3.5398216-.4091644 4.4571648 1.1349335l15.3413467 25.8231124 1.0130615-.6018448-12.3279953-20.7509269c-.9174194-1.5442276-.4093704-3.539875 1.1348572-4.4572906 1.54422-.9174156 3.5398788-.4092064 4.4572983 1.1350212l12.3279953 20.7509231 4.299202 7.2365646 1.639267-10.3107605c.3149185-1.9398041 2.1425705-3.2570038 4.0822678-2.9421082 1.9397736.3148575 3.2570114 2.1425705 2.9421539 4.0823364l-2.9793167 18.738678 4.2310486 7.1218567 3.8923874 2.5658417c.7593079.5005188.7330475 1.6231003-.0487976 2.0875931l-26.9189987 15.9924088c-.7731401.45932-1.7618868-.0377426-1.8544924-.9322663z" fill="#ededed"/></svg>