<svg id="Layer_1" enable-background="new 0 0 128 128" height="512" viewBox="0 0 128 128" width="512" xmlns="http://www.w3.org/2000/svg"><g><path d="m124.355 48.693c-.943-1.016-2.279-1.598-3.665-1.598h-2.171c.249-.384.514-.783.778-1.18 4.093-6.152 11.711-17.604-.051-26.651-9.199-7.077-18.534-.734-22.271 3.189-3.737-3.923-13.074-10.266-22.271-3.189-11.763 9.047-4.145 20.499-.052 26.651.264.397.529.796.778 1.18h-16.859c.249-.384.514-.783.778-1.18 4.093-6.152 11.711-17.604-.052-26.651-9.199-7.077-18.534-.734-22.271 3.189-3.737-3.923-13.074-10.265-22.271-3.189-11.762 9.047-4.144 20.499-.051 26.651.264.397.529.796.778 1.18h-4.171c-1.386 0-2.722.583-3.665 1.598-.942 1.016-1.425 2.392-1.321 3.775l4.125 55.132c.35 4.67 4.292 8.328 8.975 8.328h93.152c4.683 0 8.625-3.658 8.975-8.328l4.125-55.132c.102-1.383-.38-2.759-1.322-3.775z" fill="#e6e7e8"/><g><path d="m108.576 110.928h-93.152c-4.187 0-7.665-3.228-7.978-7.403l-4.124-55.132c-.174-2.32 1.662-4.298 3.989-4.298h109.379c2.327 0 4.162 1.978 3.989 4.298l-4.125 55.132c-.312 4.175-3.791 7.403-7.978 7.403z" fill="#ffd7e5"/><path d="m118.905 72.095 1.773-23.702c.174-2.32-1.662-4.298-3.989-4.298h-109.379c-2.327 0-4.162 1.978-3.989 4.298l1.773 23.702s3.405 9 13.239 9 10.167-9.333 14.667-9 4.333 9 14.167 9 9.833-9 14.833-9 4 9 14.5 9 9-9 15-9c5.667 0 4.833 9 14.167 9s13.238-9 13.238-9z" fill="#fa759e"/><g><path d="m52.31 45.313c.457-3.488 16.64-18.285 2.377-29.257-10.483-8.064-20.579 2.58-21.662 3.902-1.083-1.321-11.179-11.966-21.662-3.902-14.263 10.971 1.92 25.768 2.377 29.257.457 3.488-1.417 7.497 1.097 16.091.836 2.857 2.308 5.107 3.901 6.839 1.914 2.081 5.325.352 4.781-2.422-1.362-6.947-1.226-16.356 9.506-16.356s10.868 9.409 9.506 16.356c-.544 2.773 2.866 4.503 4.78 2.423 1.593-1.732 3.066-3.983 3.902-6.84 2.515-8.594.64-12.602 1.097-16.091z" fill="#d4fbff"/><path d="m112.259 45.313c.457-3.488 16.64-18.285 2.377-29.257-10.483-8.064-20.579 2.58-21.662 3.902-1.083-1.321-11.179-11.966-21.662-3.902-14.263 10.971 1.92 25.768 2.377 29.257.457 3.488-1.417 7.497 1.097 16.091.836 2.856 2.308 5.107 3.901 6.839 1.914 2.081 5.325.353 4.781-2.421-1.362-6.947-1.226-16.356 9.506-16.356s10.868 9.409 9.506 16.356c-.544 2.773 2.866 4.503 4.78 2.423 1.593-1.732 3.066-3.983 3.902-6.84 2.514-8.595.64-12.603 1.097-16.092z" fill="#d4fbff"/><g><path d="m71.313 19.057c8.635-6.642 17.007-.591 20.296 2.487.772.723 1.96.723 2.732 0 3.289-3.079 11.661-9.13 20.296-2.487 3.77 2.9 5.399 6.067 5.768 9.221.47-4.112-.798-8.398-5.768-12.221-10.483-8.064-20.579 2.58-21.662 3.902-1.083-1.321-11.179-11.966-21.662-3.902-4.97 3.823-6.238 8.11-5.768 12.221.368-3.155 1.998-6.322 5.768-9.221z" fill="#fff"/></g><g fill="#3a2c60"><path d="m83 109.928h-9.5c-.553 0-1 .448-1 1s.447 1 1 1h9.5c.553 0 1-.448 1-1s-.447-1-1-1z"/><path d="m120.355 44.694c-.943-1.016-2.279-1.599-3.666-1.599h-2.17c.249-.384.514-.782.778-1.178 4.093-6.152 11.712-17.604-.051-26.652-9.198-7.078-18.534-.735-22.271 3.189-3.737-3.923-13.072-10.266-22.271-3.189-11.763 9.048-4.145 20.499-.052 26.651.264.397.528.795.778 1.179h-16.859c.249-.384.514-.783.778-1.179 4.093-6.152 11.711-17.604-.052-26.651-9.193-7.073-18.532-.733-22.271 3.19-3.736-3.924-13.068-10.269-22.271-3.19-11.763 9.048-4.145 20.499-.052 26.651.264.397.528.795.778 1.179h-4.171c-1.386 0-2.722.583-3.665 1.598-.942 1.016-1.425 2.392-1.321 3.775l4.125 55.132c.35 4.67 4.292 8.328 8.975 8.328h53.576c.553 0 1-.448 1-1s-.447-1-1-1h-53.576c-3.643 0-6.708-2.845-6.98-6.478l-4.126-55.131c-.063-.842.219-1.646.793-2.265s1.355-.959 2.199-.959h5.328c.056.135.099.258.111.348.134 1.026.041 2.167-.067 3.488-.234 2.858-.555 6.771 1.195 12.754.784 2.678 2.172 5.112 4.125 7.235 1.186 1.286 2.952 1.61 4.499.825 1.551-.785 2.335-2.401 1.999-4.116-.774-3.95-1.156-9.315 1.417-12.443 1.486-1.806 3.878-2.721 7.107-2.721 3.23 0 5.622.916 7.108 2.722 2.574 3.127 2.19 8.492 1.416 12.442-.336 1.715.449 3.332 2 4.117.563.284 1.152.423 1.733.423 1.02 0 2.011-.428 2.765-1.247 1.954-2.124 3.343-4.559 4.126-7.236 1.75-5.983 1.43-9.896 1.195-12.754-.108-1.32-.201-2.461-.067-3.488.012-.09.055-.213.111-.348h19.174c.056.135.099.258.111.348.134 1.026.041 2.167-.067 3.488-.233 2.857-.555 6.771 1.196 12.754.782 2.675 2.17 5.109 4.124 7.235 1.185 1.286 2.947 1.608 4.5.825 1.551-.785 2.335-2.401 1.999-4.116-.774-3.95-1.158-9.315 1.416-12.442 1.486-1.806 3.878-2.722 7.108-2.722s5.622.916 7.108 2.722c2.574 3.127 2.19 8.492 1.416 12.442-.336 1.715.448 3.332 2 4.117.562.285 1.152.424 1.732.424 1.021 0 2.011-.429 2.765-1.248 1.954-2.124 3.343-4.559 4.126-7.236 1.75-5.983 1.43-9.897 1.195-12.754-.108-1.321-.201-2.461-.067-3.488.012-.091.055-.213.111-.348h3.328c.845 0 1.626.341 2.2.959.573.619.854 1.423.792 2.264l-4.125 55.132c-.272 3.632-3.338 6.478-6.98 6.478h-20.823c-.553 0-1 .448-1 1s.447 1 1 1h20.826c4.683 0 8.625-3.658 8.975-8.328l4.125-55.132c.103-1.384-.378-2.76-1.321-3.776zm-68.979 4.4c.233 2.852.524 6.402-1.122 12.029-.696 2.38-1.934 4.548-3.678 6.443-.679.738-1.539.689-2.123.394-.581-.294-1.134-.96-.94-1.948 1.247-6.359.63-11.103-1.835-14.098-1.884-2.29-4.795-3.451-8.652-3.451-3.856 0-6.768 1.161-8.651 3.45-2.465 2.994-3.082 7.738-1.836 14.099.193.987-.358 1.653-.939 1.947-.58.294-1.443.345-2.123-.395-1.744-1.895-2.981-4.062-3.678-6.442-1.646-5.627-1.355-9.177-1.122-12.029.117-1.435.219-2.674.057-3.911-.134-1.023-1.021-2.356-2.364-4.375-3.993-6.002-10.677-16.049-.395-23.958 10.269-7.9 20.182 3.624 20.278 3.743.189.232.474.366.773.366s.583-.134.773-.366c.098-.118 10.011-11.641 20.279-3.744 10.282 7.91 3.599 17.956-.395 23.958-1.344 2.019-2.23 3.353-2.364 4.375-.162 1.24-.06 2.479.057 3.913zm59.948 0c.233 2.853.524 6.402-1.122 12.03-.696 2.38-1.934 4.548-3.679 6.443-.679.74-1.541.689-2.121.394-.582-.294-1.134-.96-.94-1.948 1.247-6.359.63-11.103-1.835-14.098-1.884-2.29-4.795-3.451-8.652-3.451s-6.769 1.161-8.652 3.451c-2.465 2.995-3.082 7.738-1.835 14.098.193.987-.358 1.653-.939 1.947-.578.294-1.443.347-2.124-.395-1.745-1.897-2.981-4.064-3.677-6.442-1.646-5.628-1.356-9.178-1.123-12.03.117-1.435.219-2.673.057-3.911-.134-1.023-1.021-2.356-2.364-4.375-3.993-6.002-10.677-16.049-.395-23.958 10.277-7.903 20.183 3.625 20.279 3.743.379.464 1.168.464 1.547 0 .098-.118 10.007-11.644 20.279-3.743 10.281 7.91 3.598 17.957-.396 23.959-1.342 2.018-2.229 3.352-2.363 4.374-.164 1.239-.062 2.478.055 3.912z"/></g></g></g></g></svg>